<?xml version="1.0" encoding="UTF-8"?>
<svg xmlns="http://www.w3.org/2000/svg" viewBox="0 0 900 500" width="900" height="500">
  <defs>
    <radialGradient id="sphere3d" cx="38%" cy="35%" r="55%">
      <stop offset="0%" stop-color="#4a6fa5" stop-opacity="0.35"/>
      <stop offset="50%" stop-color="#2a4a7a" stop-opacity="0.55"/>
      <stop offset="100%" stop-color="#1a2a4a" stop-opacity="0.75"/>
    </radialGradient>
    <radialGradient id="cellOrange" cx="40%" cy="35%" r="50%">
      <stop offset="0%" stop-color="#ffab40"/>
      <stop offset="100%" stop-color="#e65100"/>
    </radialGradient>
    <linearGradient id="panelGrad" x1="0" y1="0" x2="0" y2="1">
      <stop offset="0%" stop-color="#1e2938"/>
      <stop offset="100%" stop-color="#141c28"/>
    </linearGradient>
    <filter id="glow">
      <feGaussianBlur stdDeviation="2" result="blur"/>
      <feMerge>
        <feMergeNode in="blur"/>
        <feMergeNode in="SourceGraphic"/>
      </feMerge>
    </filter>
  </defs>

  <!-- Window chrome -->
  <rect width="900" height="500" fill="#0a0e14" rx="8"/>

  <!-- Title bar -->
  <rect width="900" height="32" fill="#151b24" rx="8"/>
  <rect y="16" width="900" height="16" fill="#151b24"/>
  <!-- Window dots -->
  <circle cx="18" cy="16" r="5" fill="#ff5f57"/>
  <circle cx="38" cy="16" r="5" fill="#febc2e"/>
  <circle cx="58" cy="16" r="5" fill="#28c840"/>
  <text x="450" y="21" text-anchor="middle" font-family="Arial, sans-serif" font-size="11" fill="#888">SCIAN EVL SpherSIM -- localhost:8002</text>

  <!-- ===== 3D Viewport ===== -->
  <rect x="5" y="36" width="630" height="459" fill="#0d1117" rx="0"/>

  <!-- Grid floor (subtle perspective lines) -->
  <line x1="5" y1="380" x2="635" y2="380" stroke="#1a2530" stroke-width="0.5"/>
  <line x1="5" y1="340" x2="635" y2="340" stroke="#1a2530" stroke-width="0.5"/>
  <line x1="5" y1="420" x2="635" y2="420" stroke="#1a2530" stroke-width="0.5"/>

  <!-- Axes helper -->
  <line x1="50" y1="440" x2="90" y2="440" stroke="#ef5350" stroke-width="2"/>
  <text x="95" y="444" font-family="Arial, sans-serif" font-size="9" fill="#ef5350">X</text>
  <line x1="50" y1="440" x2="50" y2="400" stroke="#42a5f5" stroke-width="2"/>
  <text x="46" y="396" font-family="Arial, sans-serif" font-size="9" fill="#42a5f5">Z</text>
  <line x1="50" y1="440" x2="30" y2="455" stroke="#66bb6a" stroke-width="2"/>
  <text x="20" y="462" font-family="Arial, sans-serif" font-size="9" fill="#66bb6a">Y</text>

  <!-- Main sphere (3D perspective look) -->
  <circle cx="320" cy="240" r="165" fill="url(#sphere3d)" stroke="#4a7ab5" stroke-width="1"/>

  <!-- Wireframe lines on sphere -->
  <ellipse cx="320" cy="240" rx="165" ry="50" fill="none" stroke="#3a5a7a" stroke-width="0.6" stroke-opacity="0.6"/>
  <ellipse cx="320" cy="195" rx="150" ry="38" fill="none" stroke="#3a5a7a" stroke-width="0.4" stroke-opacity="0.4"/>
  <ellipse cx="320" cy="285" rx="150" ry="38" fill="none" stroke="#3a5a7a" stroke-width="0.4" stroke-opacity="0.4"/>
  <ellipse cx="320" cy="150" rx="115" ry="25" fill="none" stroke="#3a5a7a" stroke-width="0.3" stroke-opacity="0.3"/>
  <ellipse cx="320" cy="330" rx="115" ry="25" fill="none" stroke="#3a5a7a" stroke-width="0.3" stroke-opacity="0.3"/>

  <!-- Longitude curves -->
  <path d="M 320 75 Q 260 240, 320 405" fill="none" stroke="#3a5a7a" stroke-width="0.4" stroke-opacity="0.4"/>
  <path d="M 320 75 Q 380 240, 320 405" fill="none" stroke="#3a5a7a" stroke-width="0.4" stroke-opacity="0.4"/>
  <path d="M 320 75 Q 200 240, 320 405" fill="none" stroke="#3a5a7a" stroke-width="0.3" stroke-opacity="0.3"/>
  <path d="M 320 75 Q 440 240, 320 405" fill="none" stroke="#3a5a7a" stroke-width="0.3" stroke-opacity="0.3"/>

  <!-- EVL margin line -->
  <ellipse cx="320" cy="290" rx="147" ry="36" fill="none" stroke="#42a5f5" stroke-width="2" stroke-dasharray="6,4" filter="url(#glow)"/>

  <!-- DFC cells on the sphere surface -->
  <!-- Cluster of cells near the EVL margin -->
  <ellipse cx="270" cy="255" rx="16" ry="13" fill="url(#cellOrange)" fill-opacity="0.85" stroke="#ff6e40" stroke-width="1.5"/>
  <ellipse cx="302" cy="248" rx="14" ry="12" fill="url(#cellOrange)" fill-opacity="0.85" stroke="#ff6e40" stroke-width="1.5"/>
  <ellipse cx="335" cy="252" rx="15" ry="12" fill="url(#cellOrange)" fill-opacity="0.85" stroke="#ff6e40" stroke-width="1.5"/>
  <ellipse cx="365" cy="260" rx="13" ry="11" fill="url(#cellOrange)" fill-opacity="0.85" stroke="#ff6e40" stroke-width="1.5"/>
  <ellipse cx="285" cy="275" rx="15" ry="12" fill="url(#cellOrange)" fill-opacity="0.85" stroke="#ff6e40" stroke-width="1.5"/>
  <ellipse cx="318" cy="270" rx="14" ry="11" fill="url(#cellOrange)" fill-opacity="0.85" stroke="#ff6e40" stroke-width="1.5"/>
  <ellipse cx="350" cy="278" rx="13" ry="11" fill="url(#cellOrange)" fill-opacity="0.85" stroke="#ff6e40" stroke-width="1.5"/>
  <ellipse cx="255" cy="278" rx="12" ry="10" fill="url(#cellOrange)" fill-opacity="0.85" stroke="#ff6e40" stroke-width="1.5"/>
  <ellipse cx="300" cy="290" rx="14" ry="11" fill="url(#cellOrange)" fill-opacity="0.75" stroke="#ff6e40" stroke-width="1"/>
  <ellipse cx="335" cy="295" rx="13" ry="10" fill="url(#cellOrange)" fill-opacity="0.75" stroke="#ff6e40" stroke-width="1"/>
  <ellipse cx="270" cy="295" rx="12" ry="10" fill="url(#cellOrange)" fill-opacity="0.7" stroke="#ff6e40" stroke-width="1"/>
  <ellipse cx="380" cy="275" rx="12" ry="9" fill="url(#cellOrange)" fill-opacity="0.7" stroke="#ff6e40" stroke-width="1"/>

  <!-- Cell center dots -->
  <circle cx="270" cy="255" r="2" fill="#fff"/>
  <circle cx="302" cy="248" r="2" fill="#fff"/>
  <circle cx="335" cy="252" r="2" fill="#fff"/>
  <circle cx="365" cy="260" r="2" fill="#fff"/>
  <circle cx="285" cy="275" r="2" fill="#fff"/>
  <circle cx="318" cy="270" r="2" fill="#fff"/>
  <circle cx="350" cy="278" r="2" fill="#fff"/>
  <circle cx="255" cy="278" r="2" fill="#fff"/>

  <!-- Status bar at bottom of viewport -->
  <rect x="5" y="470" width="630" height="25" fill="#0a1118" fill-opacity="0.9"/>
  <text x="15" y="486" font-family="monospace" font-size="10" fill="#66bb6a">Step: 142</text>
  <text x="120" y="486" font-family="monospace" font-size="10" fill="#90caf9">Active cells: 24</text>
  <text x="300" y="486" font-family="monospace" font-size="10" fill="#888">FPS: 20</text>

  <!-- ===== CONTROLS PANEL (right side) ===== -->
  <rect x="640" y="36" width="255" height="459" fill="url(#panelGrad)" rx="0"/>

  <!-- Panel title -->
  <text x="767" y="62" text-anchor="middle" font-family="Arial, sans-serif" font-size="14" font-weight="bold" fill="#90caf9">Simulation Controls</text>

  <!-- Buttons row -->
  <rect x="652" y="74" width="55" height="28" rx="4" fill="#1565c0" stroke="#42a5f5" stroke-width="1"/>
  <text x="679" y="93" text-anchor="middle" font-family="Arial, sans-serif" font-size="11" font-weight="bold" fill="#fff">Init</text>

  <rect x="714" y="74" width="55" height="28" rx="4" fill="#2e7d32" stroke="#66bb6a" stroke-width="1"/>
  <text x="741" y="93" text-anchor="middle" font-family="Arial, sans-serif" font-size="11" font-weight="bold" fill="#fff">Play</text>

  <rect x="776" y="74" width="55" height="28" rx="4" fill="#c62828" stroke="#ef5350" stroke-width="1"/>
  <text x="803" y="93" text-anchor="middle" font-family="Arial, sans-serif" font-size="11" font-weight="bold" fill="#fff">Pause</text>

  <rect x="838" y="74" width="48" height="28" rx="4" fill="#37474f" stroke="#78909c" stroke-width="1"/>
  <text x="862" y="93" text-anchor="middle" font-family="Arial, sans-serif" font-size="11" font-weight="bold" fill="#fff">Step</text>

  <!-- Parameters section -->
  <text x="652" y="125" font-family="Arial, sans-serif" font-size="11" font-weight="bold" fill="#78909c">PARAMETERS</text>
  <line x1="652" y1="130" x2="880" y2="130" stroke="#2a3a4a" stroke-width="1"/>

  <!-- Param: Embryo Radius -->
  <text x="652" y="150" font-family="Arial, sans-serif" font-size="10" fill="#bbb">Embryo Radius</text>
  <rect x="790" y="138" width="90" height="20" rx="3" fill="#0d1520" stroke="#3a5a7a" stroke-width="1"/>
  <text x="835" y="153" text-anchor="middle" font-family="monospace" font-size="10" fill="#81d4fa">1000</text>

  <!-- Param: Number of DFCs -->
  <text x="652" y="178" font-family="Arial, sans-serif" font-size="10" fill="#bbb">Number of DFCs</text>
  <rect x="790" y="166" width="90" height="20" rx="3" fill="#0d1520" stroke="#3a5a7a" stroke-width="1"/>
  <text x="835" y="181" text-anchor="middle" font-family="monospace" font-size="10" fill="#81d4fa">24</text>

  <!-- Param: Cell Radial Size -->
  <text x="652" y="206" font-family="Arial, sans-serif" font-size="10" fill="#bbb">Cell Radial Size</text>
  <rect x="790" y="194" width="90" height="20" rx="3" fill="#0d1520" stroke="#3a5a7a" stroke-width="1"/>
  <text x="835" y="209" text-anchor="middle" font-family="monospace" font-size="10" fill="#81d4fa">0.049</text>

  <!-- Param: Contour Vertices -->
  <text x="652" y="234" font-family="Arial, sans-serif" font-size="10" fill="#bbb">Contour Vertices</text>
  <rect x="790" y="222" width="90" height="20" rx="3" fill="#0d1520" stroke="#3a5a7a" stroke-width="1"/>
  <text x="835" y="237" text-anchor="middle" font-family="monospace" font-size="10" fill="#81d4fa">100</text>

  <!-- Param: EVL Speed -->
  <text x="652" y="262" font-family="Arial, sans-serif" font-size="10" fill="#bbb">EVL Speed</text>
  <rect x="790" y="250" width="90" height="20" rx="3" fill="#0d1520" stroke="#3a5a7a" stroke-width="1"/>
  <text x="835" y="265" text-anchor="middle" font-family="monospace" font-size="10" fill="#81d4fa">0.005</text>

  <!-- Param: Noise Std -->
  <text x="652" y="290" font-family="Arial, sans-serif" font-size="10" fill="#bbb">Noise Std</text>
  <rect x="790" y="278" width="90" height="20" rx="3" fill="#0d1520" stroke="#3a5a7a" stroke-width="1"/>
  <text x="835" y="293" text-anchor="middle" font-family="monospace" font-size="10" fill="#81d4fa">0.5</text>

  <!-- Param: Step Interval -->
  <text x="652" y="318" font-family="Arial, sans-serif" font-size="10" fill="#bbb">Step Interval (ms)</text>
  <rect x="790" y="306" width="90" height="20" rx="3" fill="#0d1520" stroke="#3a5a7a" stroke-width="1"/>
  <text x="835" y="321" text-anchor="middle" font-family="monospace" font-size="10" fill="#81d4fa">50</text>

  <!-- View Options section -->
  <text x="652" y="356" font-family="Arial, sans-serif" font-size="11" font-weight="bold" fill="#78909c">VIEW OPTIONS</text>
  <line x1="652" y1="361" x2="880" y2="361" stroke="#2a3a4a" stroke-width="1"/>

  <!-- Checkbox: Wireframe -->
  <rect x="652" y="370" width="14" height="14" rx="2" fill="#0d1520" stroke="#3a5a7a" stroke-width="1"/>
  <polyline points="655,378 658,381 665,374" fill="none" stroke="#42a5f5" stroke-width="2"/>
  <text x="674" y="382" font-family="Arial, sans-serif" font-size="10" fill="#bbb">Wireframe sphere</text>

  <!-- Checkbox: Axes -->
  <rect x="652" y="392" width="14" height="14" rx="2" fill="#0d1520" stroke="#3a5a7a" stroke-width="1"/>
  <polyline points="655,400 658,403 665,396" fill="none" stroke="#42a5f5" stroke-width="2"/>
  <text x="674" y="404" font-family="Arial, sans-serif" font-size="10" fill="#bbb">Show axes</text>

  <!-- Checkbox: Cell centers -->
  <rect x="652" y="414" width="14" height="14" rx="2" fill="#0d1520" stroke="#3a5a7a" stroke-width="1"/>
  <polyline points="655,422 658,425 665,418" fill="none" stroke="#42a5f5" stroke-width="2"/>
  <text x="674" y="426" font-family="Arial, sans-serif" font-size="10" fill="#bbb">Show cell centers</text>

  <!-- Status section -->
  <text x="652" y="456" font-family="Arial, sans-serif" font-size="11" font-weight="bold" fill="#78909c">STATUS</text>
  <line x1="652" y1="461" x2="880" y2="461" stroke="#2a3a4a" stroke-width="1"/>
  <circle cx="660" cy="478" r="5" fill="#66bb6a"/>
  <text x="674" y="482" font-family="Arial, sans-serif" font-size="10" fill="#66bb6a">Running -- Step 142</text>
</svg>
